# xmcd
#
# Track frame offsets: 
#        150
#        12110
#        24353
#        36151
#        48654
#        63239
#        75046
#        87170
#        103356
#        116227
#        128349
#
# Disc length: 1943 seconds
#
# Revision: 0
# Processed by: cddbd v1.5.1PL2 Copyright (c) Steve Scherf et al.
# Submitted via: ExactAudioCopy v0.95a5
#
DISCID=7d07950b
DTITLE=Little Johnny Taylor - Everybody Knows About My Good Thing [Fue
DTITLE=l 2005 Reissue]
DYEAR=2005
DGENRE=Blues
TTITLE0=Baby Get Hip to Yourself
TTITLE1=How Are You Fixed for Love
TTITLE2=How Can a Broke Man Survive
TTITLE3=Keep on Keeping On
TTITLE4=Everybody Knows About My Good Thing, Pt. 1
TTITLE5=Everybody Knows About My Good Thing, Pt. 2
TTITLE6=There Is Something on Your Mind
TTITLE7=You've Got the Love I Need
TTITLE8=It's My Fault Darling
TTITLE9=Make Love to Me Baby
TTITLE10=Sweet Soul Woman
EXTD=
EXTT0=
EXTT1=
EXTT2=
EXTT3=
EXTT4=
EXTT5=
EXTT6=
EXTT7=
EXTT8=
EXTT9=
EXTT10=
PLAYORDER=
